# xmcd CD database file
#
# Track frame offsets:
#	150
#	13374
#	24637
#	39188
#	47466
#	64335
#	78400
#	91463
#	105012
#	119284
#	131957
#	147610
#
# Disc length: 2136 seconds
#
# Revision: 0
# Processed by: cddbd v1.5.2PL0 Copyright (c) Steve Scherf et al.
# Submitted via: CDex 1.70beta2
#
DISCID=a008560c
DTITLE=Various Artist - MEMORY OF BIGBAND
DYEAR=2003
DGENRE=Jazz
TTITLE0=THE SLIDER - COUNT BASIE and HIS ORCNHESTRA
TTITLE1=AT SUNDOWN - BENNY GOODMAN
TTITLE2=COME THE SANDMAN(A Lullaby) - LES BROWN and HIS ORCHESTRA
TTITLE3=CHOP STICKS - XAVIER CUGAT
TTITLE4=TUXEDO JUNCTION - GLENN MILLER and HIS ORCHESTRA
TTITLE5=JUMP FOR JOE - STAN KENTON and HIS ORCHESTRA
TTITLE6=LIFE GOES TO A PARTY - HARRY JAMES
TTITLE7=SIDEWALKERS OF CUBA - WOODY HERMAN
TTITLE8=BOOGE WOOGE - TOMMY DORSEY
TTITLE9=CARAVAN - DUKE ELINGTON
TTITLE10=COOL EYES - STAN KENTON and HIS ORCHESTRA
TTITLE11=LOVER MAN - STAN KENTON and HIS ORCHESTRA
EXTD=YEAR: 2003
EXTT0=
EXTT1=
EXTT2=
EXTT3=
EXTT4=
EXTT5=
EXTT6=
EXTT7=
EXTT8=
EXTT9=
EXTT10=
EXTT11=
PLAYORDER=
